<svg width="512" height="512" viewBox="0 0 512 512" fill="none" xmlns="http://www.w3.org/2000/svg">
<g filter="url(#filter0_i_9_2)">
<circle cx="24" cy="24" r="24" fill="#68A4A4"/>
</g>
<circle opacity="0.25" cx="13.0909" cy="13.0909" r="13.0909" transform="matrix(-1 0 0 1 37.6362 10.9091)" fill="url(#paint0_linear_9_2)"/>
<path fill-rule="evenodd" clip-rule="evenodd" d="M27.3379 25.6364C28.3059 25.6364 29.077 24.9 29.077 24C29.077 23.0945 28.3059 22.3636 27.3379 22.3636C26.3698 22.3636 25.5988 23.0945 25.5988 24C25.5988 24.9 26.3698 25.6364 27.3379 25.6364ZM5.11794 25.5764V23.7491L6.03533 25.1782H6.14789L7.06528 23.7491V25.5764H7.81945V22.4182H7.06528L6.09161 23.9018L5.11794 22.4182H4.36377V25.5764H5.11794ZM13.6727 25.5764V24.5127L14.8434 22.4182H14.0386L13.2956 23.7873L12.5584 22.4182H11.7535L12.9242 24.5127V25.5764H13.6727ZM19.5316 24.48V25.5764H18.7775V22.4182H19.5316V23.8145H20.7304V22.4182H21.4846V25.5764H20.7304V24.48H19.5316ZM26.3811 24C26.3811 24.5236 26.8032 24.9655 27.3379 24.9655C27.8725 24.9655 28.2946 24.5236 28.2946 24C28.2946 23.4655 27.8725 23.0345 27.3379 23.0345C26.8032 23.0345 26.3811 23.4655 26.3811 24ZM33.9453 25.5764V23.7491L34.8627 25.1782H34.9753L35.8926 23.7491V25.5764H36.6468V22.4182H35.8926L34.919 23.9018L33.9453 22.4182H33.1911V25.5764H33.9453ZM43.091 24.9055V25.5764H40.8173V22.4182H43.091V23.0891H41.5714V23.6891H42.9729V24.36H41.5714V24.9055H43.091Z" fill="white"/>
<defs>
<filter id="filter0_i_9_2" x="0" y="0" width="48" height="48" filterUnits="userSpaceOnUse" color-interpolation-filters="sRGB">
<feFlood flood-opacity="0" result="BackgroundImageFix"/>
<feBlend mode="normal" in="SourceGraphic" in2="BackgroundImageFix" result="shape"/>
<feColorMatrix in="SourceAlpha" type="matrix" values="0 0 0 0 0 0 0 0 0 0 0 0 0 0 0 0 0 0 127 0" result="hardAlpha"/>
<feOffset/>
<feGaussianBlur stdDeviation="17.5"/>
<feComposite in2="hardAlpha" operator="arithmetic" k2="-1" k3="1"/>
<feColorMatrix type="matrix" values="0 0 0 0 0 0 0 0 0 0 0 0 0 0 0 0 0 0 0.0452633 0"/>
<feBlend mode="normal" in2="shape" result="effect1_innerShadow_9_2"/>
</filter>
<linearGradient id="paint0_linear_9_2" x1="13.0909" y1="-13.0909" x2="-13.0909" y2="13.0909" gradientUnits="userSpaceOnUse">
<stop stop-color="white"/>
<stop offset="1" stop-color="white" stop-opacity="0.01"/>
</linearGradient>
</defs>
</svg>
